<svg width="153" height="28" viewBox="0 0 153 28" fill="none" xmlns="http://www.w3.org/2000/svg">
<path d="M-0.000443697 26.6417V0.459905H8.84615C10.8916 0.459905 12.5706 0.809336 13.8831 1.5082C15.1956 2.19854 16.1672 3.14882 16.7979 4.35905C17.4285 5.56928 17.7439 6.9457 17.7439 8.48831C17.7439 10.0309 17.4285 11.3988 16.7979 12.592C16.1672 13.7852 15.1998 14.7227 13.8959 15.4045C12.5919 16.0778 10.9257 16.4145 8.89728 16.4145H1.73819V13.5508H8.79501C10.1927 13.5508 11.3177 13.3463 12.17 12.9372C13.0308 12.5281 13.653 11.9485 14.0365 11.1985C14.4285 10.44 14.6246 9.53661 14.6246 8.48831C14.6246 7.44002 14.4285 6.52382 14.0365 5.73973C13.6444 4.95564 13.018 4.35053 12.1572 3.92439C11.2964 3.48973 10.1586 3.2724 8.74387 3.2724H3.17001V26.6417H-0.000443697ZM12.3234 14.8804L18.7666 26.6417H15.0848L8.74387 14.8804H12.3234ZM32.4398 27.0508C30.5478 27.0508 28.9157 26.6332 27.5435 25.798C26.1799 24.9542 25.1273 23.7781 24.3858 22.2696C23.6529 20.7525 23.2864 18.9883 23.2864 16.977C23.2864 14.9656 23.6529 13.1929 24.3858 11.6588C25.1273 10.1162 26.1586 8.91445 27.4796 8.05365C28.8091 7.18434 30.3603 6.74968 32.133 6.74968C33.1557 6.74968 34.1657 6.92013 35.1628 7.26104C36.16 7.60195 37.0677 8.15593 37.8858 8.92297C38.704 9.6815 39.356 10.6872 39.8418 11.94C40.3276 13.1929 40.5705 14.7355 40.5705 16.5679V17.8463H25.4341V15.2383H37.5023C37.5023 14.1304 37.2807 13.1417 36.8376 12.2724C36.4029 11.4031 35.7807 10.717 34.9711 10.2142C34.1699 9.71133 33.2239 9.4599 32.133 9.4599C30.9313 9.4599 29.8915 9.7582 29.0137 10.3548C28.1444 10.9429 27.4753 11.7099 27.0066 12.6559C26.5378 13.602 26.3035 14.6162 26.3035 15.6985V17.4372C26.3035 18.9201 26.5591 20.1772 27.0705 21.2085C27.5904 22.2312 28.3106 23.011 29.231 23.548C30.1515 24.0764 31.2211 24.3406 32.4398 24.3406C33.2324 24.3406 33.9483 24.2298 34.5876 24.0082C35.2353 23.7781 35.7935 23.4372 36.2623 22.9855C36.731 22.5252 37.0932 21.9542 37.3489 21.2724L40.2637 22.0906C39.9569 23.0792 39.4412 23.9485 38.7168 24.6985C37.9924 25.44 37.0975 26.0196 36.0322 26.4372C34.9668 26.8463 33.7694 27.0508 32.4398 27.0508ZM60.8691 11.4031L58.1589 12.1701C57.9884 11.7184 57.737 11.2795 57.4046 10.8534C57.0807 10.4187 56.6376 10.0608 56.0751 9.77951C55.5126 9.49826 54.7924 9.35763 53.9145 9.35763C52.7128 9.35763 51.7114 9.63462 50.9103 10.1886C50.1177 10.7341 49.7214 11.4287 49.7214 12.2724C49.7214 13.0224 49.9941 13.6147 50.5395 14.0494C51.085 14.4841 51.9373 14.8463 53.0964 15.136L56.0111 15.852C57.7668 16.2781 59.0751 16.9301 59.9358 17.8079C60.7966 18.6772 61.227 19.798 61.227 21.1701C61.227 22.2951 60.9032 23.3008 60.2555 24.1872C59.6162 25.0735 58.7214 25.7724 57.5708 26.2838C56.4202 26.7951 55.0822 27.0508 53.5566 27.0508C51.5537 27.0508 49.8961 26.6162 48.5836 25.7468C47.2711 24.8775 46.4401 23.6076 46.0907 21.9372L48.9543 21.2213C49.227 22.2781 49.7427 23.0707 50.5012 23.5991C51.2682 24.1275 52.2697 24.3917 53.5055 24.3917C54.9117 24.3917 56.0282 24.0934 56.8549 23.4968C57.6901 22.8917 58.1077 22.1673 58.1077 21.3235C58.1077 20.6417 57.8691 20.0707 57.3918 19.6105C56.9145 19.1417 56.1816 18.7923 55.193 18.5622L51.9202 17.7951C50.1219 17.369 48.8009 16.7085 47.9572 15.8136C47.1219 14.9102 46.7043 13.7809 46.7043 12.4258C46.7043 11.3179 47.0154 10.3377 47.6376 9.48547C48.2682 8.6332 49.1248 7.96417 50.2072 7.47837C51.2981 6.99258 52.5339 6.74968 53.9145 6.74968C55.8577 6.74968 57.3833 7.17581 58.4912 8.02809C59.6077 8.88036 60.4003 10.0054 60.8691 11.4031ZM76.1084 7.00536V9.56218H65.9322V7.00536H76.1084ZM68.8981 2.30081H71.9152V21.0167C71.9152 21.869 72.0388 22.5082 72.2859 22.9343C72.5416 23.352 72.8655 23.6332 73.2575 23.7781C73.6581 23.9145 74.08 23.9826 74.5231 23.9826C74.8555 23.9826 75.1283 23.9656 75.3413 23.9315C75.5544 23.8889 75.7248 23.8548 75.8527 23.8292L76.4663 26.5395C76.2618 26.6162 75.9763 26.6929 75.6098 26.7696C75.2433 26.8548 74.7788 26.8974 74.2163 26.8974C73.364 26.8974 72.5288 26.7142 71.7106 26.3477C70.901 25.9812 70.2277 25.423 69.6908 24.673C69.1623 23.923 68.8981 22.977 68.8981 21.8349V2.30081ZM90.213 27.0508C88.4403 27.0508 86.8849 26.6289 85.5469 25.7852C84.2173 24.9414 83.1775 23.761 82.4275 22.244C81.6861 20.727 81.3153 18.9542 81.3153 16.9258C81.3153 14.8804 81.6861 13.0948 82.4275 11.5693C83.1775 10.0437 84.2173 8.85905 85.5469 8.0153C86.8849 7.17155 88.4403 6.74968 90.213 6.74968C91.9858 6.74968 93.5369 7.17155 94.8665 8.0153C96.2045 8.85905 97.2443 10.0437 97.9858 11.5693C98.7358 13.0948 99.1108 14.8804 99.1108 16.9258C99.1108 18.9542 98.7358 20.727 97.9858 22.244C97.2443 23.761 96.2045 24.9414 94.8665 25.7852C93.5369 26.6289 91.9858 27.0508 90.213 27.0508ZM90.213 24.3406C91.5596 24.3406 92.6676 23.9954 93.5369 23.3051C94.4062 22.6147 95.0497 21.7071 95.4673 20.5821C95.8849 19.4571 96.0937 18.2383 96.0937 16.9258C96.0937 15.6133 95.8849 14.3903 95.4673 13.2568C95.0497 12.1233 94.4062 11.2071 93.5369 10.5082C92.6676 9.80934 91.5596 9.4599 90.213 9.4599C88.8665 9.4599 87.7585 9.80934 86.8892 10.5082C86.0199 11.2071 85.3764 12.1233 84.9588 13.2568C84.5412 14.3903 84.3324 15.6133 84.3324 16.9258C84.3324 18.2383 84.5412 19.4571 84.9588 20.5821C85.3764 21.7071 86.0199 22.6147 86.8892 23.3051C87.7585 23.9954 88.8665 24.3406 90.213 24.3406ZM105.516 26.6417V7.00536H108.431V9.97127H108.636C108.994 8.99968 109.641 8.21133 110.579 7.60621C111.516 7.0011 112.573 6.69854 113.749 6.69854C113.971 6.69854 114.248 6.7028 114.58 6.71132C114.913 6.71985 115.164 6.73263 115.334 6.74968V9.81786C115.232 9.79229 114.998 9.75394 114.631 9.7028C114.273 9.64314 113.894 9.61331 113.494 9.61331C112.539 9.61331 111.687 9.8136 110.937 10.2142C110.195 10.6062 109.607 11.1517 109.172 11.8505C108.746 12.5409 108.533 13.3292 108.533 14.2156V26.6417H105.516ZM128.346 27.0508C126.454 27.0508 124.822 26.6332 123.45 25.798C122.086 24.9542 121.034 23.7781 120.292 22.2696C119.559 20.7525 119.193 18.9883 119.193 16.977C119.193 14.9656 119.559 13.1929 120.292 11.6588C121.034 10.1162 122.065 8.91445 123.386 8.05365C124.715 7.18434 126.267 6.74968 128.039 6.74968C129.062 6.74968 130.072 6.92013 131.069 7.26104C132.066 7.60195 132.974 8.15593 133.792 8.92297C134.61 9.6815 135.262 10.6872 135.748 11.94C136.234 13.1929 136.477 14.7355 136.477 16.5679V17.8463H121.34V15.2383H133.409C133.409 14.1304 133.187 13.1417 132.744 12.2724C132.309 11.4031 131.687 10.717 130.877 10.2142C130.076 9.71133 129.13 9.4599 128.039 9.4599C126.838 9.4599 125.798 9.7582 124.92 10.3548C124.051 10.9429 123.382 11.7099 122.913 12.6559C122.444 13.602 122.21 14.6162 122.21 15.6985V17.4372C122.21 18.9201 122.465 20.1772 122.977 21.2085C123.497 22.2312 124.217 23.011 125.137 23.548C126.058 24.0764 127.127 24.3406 128.346 24.3406C129.139 24.3406 129.855 24.2298 130.494 24.0082C131.142 23.7781 131.7 23.4372 132.169 22.9855C132.637 22.5252 132.999 21.9542 133.255 21.2724L136.17 22.0906C135.863 23.0792 135.347 23.9485 134.623 24.6985C133.899 25.44 133.004 26.0196 131.938 26.4372C130.873 26.8463 129.676 27.0508 128.346 27.0508ZM142.866 26.6417V7.00536H145.781V9.97127H145.986C146.344 8.99968 146.991 8.21133 147.929 7.60621C148.866 7.0011 149.923 6.69854 151.099 6.69854C151.321 6.69854 151.598 6.7028 151.93 6.71132C152.263 6.71985 152.514 6.73263 152.684 6.74968V9.81786C152.582 9.79229 152.348 9.75394 151.981 9.7028C151.623 9.64314 151.244 9.61331 150.844 9.61331C149.889 9.61331 149.037 9.8136 148.287 10.2142C147.545 10.6062 146.957 11.1517 146.523 11.8505C146.096 12.5409 145.883 13.3292 145.883 14.2156V26.6417H142.866Z" fill="black"/>
</svg>
